<svg id="_x31_px" enable-background="new 0 0 24 24" height="512" viewBox="0 0 24 24" width="512" xmlns="http://www.w3.org/2000/svg"><g><path d="m9 11c-2.757 0-5-2.243-5-5s2.243-5 5-5 5 2.243 5 5-2.243 5-5 5zm0-9c-2.206 0-4 1.794-4 4s1.794 4 4 4 4-1.794 4-4-1.794-4-4-4z"/></g><g><path d="m11.5 22h-11c-.276 0-.5-.224-.5-.5v-4c0-2.481 2.019-4.5 4.5-4.5h8c.276 0 .5.224.5.5s-.224.5-.5.5h-8c-1.93 0-3.5 1.57-3.5 3.5v3.5h10.5c.276 0 .5.224.5.5s-.224.5-.5.5z"/></g><g><path d="m15.646 23.999c-.478 0-.89-.137-1.198-.446-1.278-1.278.377-4.313 2.584-6.521 2.206-2.207 5.244-3.865 6.521-2.584 1.278 1.278-.377 4.313-2.584 6.521-1.674 1.673-3.824 3.03-5.323 3.03zm6.703-8.998c-.911 0-2.729.855-4.61 2.738-2.347 2.348-3.098 4.592-2.584 5.106.512.514 2.759-.236 5.107-2.584 2.347-2.347 3.098-4.592 2.584-5.106-.102-.102-.272-.154-.497-.154z"/></g><g><path d="m22.354 23.999c-1.499 0-3.649-1.356-5.323-3.03-2.207-2.207-3.862-5.242-2.584-6.521 1.277-1.279 4.314.377 6.521 2.584s3.862 5.242 2.584 6.521c-.308.308-.72.446-1.198.446zm-7.2-8.844c-.514.514.237 2.759 2.584 5.106 2.348 2.348 4.596 3.096 5.107 2.584.514-.514-.237-2.759-2.584-5.106-2.347-2.349-4.595-3.097-5.107-2.584z"/></g></svg>